# Made in Blockbench 4.12.6
mtllib Drawer.mtl

o cube
v 0.125 0.1875 0.125
v 0.125 0.1875 0
v 0.125 0 0.125
v 0.125 0 0
v 0 0.1875 0
v 0 0.1875 0.125
v 0 0 0
v 0 0 0.125
vt 0 1
vt 1 1
vt 1 0
vt 0 0
vt 0 1
vt 1 1
vt 1 0
vt 0 0
vt 0 1
vt 1 1
vt 1 0
vt 0 0
vt 1 1
vt 0 1
vt 0 0
vt 1 0
vt 1 0
vt 0 0
vt 0 1
vt 1 1
vt 1 1
vt 0 1
vt 0 0
vt 1 0
vn 0 0 -1
vn 1 0 0
vn 0 0 1
vn -1 0 0
vn 0 1 0
vn 0 -1 0
usemtl m_efae676f-3d7b-c936-2a01-450badbc8f78
f 4/4/1 7/3/1 5/2/1 2/1/1
usemtl m_663c865c-fdd7-f4f6-cc1a-ce728500366a
f 3/8/2 4/7/2 2/6/2 1/5/2
usemtl m_2ef7b6d1-c81f-4b32-d345-d8a611bd8b62
f 8/12/3 3/11/3 1/10/3 6/9/3
usemtl m_663c865c-fdd7-f4f6-cc1a-ce728500366a
f 7/16/4 8/15/4 6/14/4 5/13/4
usemtl m_26faa245-fddd-3051-ed64-53b697fab5d9
f 6/20/5 1/19/5 2/18/5 5/17/5
usemtl m_2ef7b6d1-c81f-4b32-d345-d8a611bd8b62
f 7/24/6 4/23/6 3/22/6 8/21/6